<svg width="22" height="16" viewBox="0 0 22 16" fill="none" xmlns="http://www.w3.org/2000/svg">
<path d="M21.2456 8.70698C21.6361 8.31646 21.6361 7.6833 21.2456 7.29277L14.8816 0.928811C14.4911 0.538286 13.8579 0.538286 13.4674 0.928811C13.0769 1.31934 13.0769 1.9525 13.4674 2.34302L19.1242 7.99988L13.4674 13.6567C13.0769 14.0473 13.0769 14.6804 13.4674 15.0709C13.8579 15.4615 14.4911 15.4615 14.8816 15.0709L21.2456 8.70698ZM1.35578 6.99988C0.80349 6.99988 0.355776 7.44759 0.355776 7.99988C0.355776 8.55216 0.80349 8.99988 1.35578 8.99988L1.35578 6.99988ZM20.5385 6.99988L1.35578 6.99988L1.35578 8.99988L20.5385 8.99988L20.5385 6.99988Z" fill="#3D46A2"/>
</svg>
